<svg width="500" height="500" viewBox="0 0 500 500" fill="none" xmlns="http://www.w3.org/2000/svg">
<path fill-rule="evenodd" clip-rule="evenodd" d="M145.093 96.309C146.702 94.2212 149.176 93 151.797 93H347.51C350.629 93 353.497 94.7249 354.981 97.4932L434.976 246.706C436.328 249.227 436.342 252.262 435.014 254.796L357.616 402.436C356.144 405.244 353.255 407 350.108 407H151.797C148.681 407 145.815 405.278 144.329 402.513L65.0268 254.872C63.667 252.341 63.6572 249.289 65.0008 246.749L143.092 99.1083C143.32 98.6774 143.583 98.267 143.88 97.8815L145.093 96.309ZM86.7164 242.102L150.602 121.318L214.655 241.864H150.585C129.006 241.864 109.768 241.951 95.9246 242.039C92.5124 242.06 89.4279 242.082 86.7164 242.102ZM151.689 380.238L86.7021 259.249C89.4642 259.229 92.6192 259.207 96.1172 259.185C109.941 259.097 129.12 259.01 150.585 259.01H214.956L151.689 380.238ZM344.992 389.854H165.872L234.156 259.012L413.405 259.353L344.992 389.854ZM413.248 242.206L233.933 241.866L163.944 110.146H342.449L413.248 242.206Z" fill="#595A5B" stroke="#474747" stroke-miterlimit="10"/>
</svg>
