<svg width="49" height="42" viewBox="0 0 49 42" fill="none" xmlns="http://www.w3.org/2000/svg">
<path fill-rule="evenodd" clip-rule="evenodd" d="M11.3309 1.42153C11.5359 1.15557 11.8511 1 12.185 1H37.1181C37.5154 1 37.8807 1.21973 38.0698 1.57238L48.2609 20.5804C48.4331 20.9015 48.4349 21.2882 48.2657 21.6109L38.4055 40.4186C38.218 40.7763 37.8499 41 37.449 41H12.185C11.788 41 11.4229 40.7806 11.2336 40.4284L1.13081 21.6207C0.957577 21.2982 0.956335 20.9094 1.1275 20.5858L11.076 1.77813C11.105 1.72324 11.1386 1.67095 11.1765 1.62185L11.3309 1.42153ZM3.89398 19.9939L12.0327 4.60733L20.1928 19.9635H12.0306C9.28149 19.9635 6.83067 19.9747 5.06706 19.9858C4.63237 19.9885 4.23941 19.9913 3.89398 19.9939ZM12.1712 37.5908L3.89216 22.1782C4.24403 22.1756 4.64597 22.1728 5.09161 22.17C6.85268 22.1589 9.29597 22.1478 12.0306 22.1478H20.2312L12.1712 37.5908ZM36.7973 38.8158H13.9781L22.6772 22.1481L45.5128 22.1914L36.7973 38.8158ZM45.4928 20.0072L22.6488 19.9638L13.7324 3.18425H36.4733L45.4928 20.0072Z" fill="#595A5B" stroke="#474747" stroke-miterlimit="10"/>
</svg>
