<svg width="100" height="100" viewBox="0 0 100 100" fill="none" xmlns="http://www.w3.org/2000/svg">
<path fill-rule="evenodd" clip-rule="evenodd" d="M31.3874 22.5901C31.6729 22.2178 32.1119 22 32.5769 22H67.3002C67.8536 22 68.3624 22.3076 68.6257 22.8013L82.8184 49.4126C83.0582 49.8621 83.0607 50.4035 82.825 50.8553L69.0931 77.1861C68.832 77.6868 68.3194 78 67.761 78H32.5769C32.024 78 31.5155 77.6928 31.252 77.1997L17.1822 50.8689C16.9409 50.4174 16.9392 49.8732 17.1776 49.4202L31.0324 23.0894C31.0728 23.0125 31.1197 22.9393 31.1723 22.8706L31.3874 22.5901ZM21.0303 48.5914L32.3649 27.0503L43.7291 48.5489H32.3619C28.5333 48.5489 25.1201 48.5645 22.664 48.5801C22.0587 48.584 21.5114 48.5878 21.0303 48.5914ZM32.5577 73.2271L21.0278 51.6495C21.5178 51.6459 22.0776 51.6419 22.6982 51.638C25.1508 51.6225 28.5535 51.607 32.3619 51.6069H43.7826L32.5577 73.2271ZM66.8534 74.942H35.074L47.189 51.6073L78.9912 51.668L66.8534 74.942ZM78.9633 48.61L47.1494 48.5493L34.7319 25.058H66.4022L78.9633 48.61Z" fill="white" stroke="#E8E8E8" stroke-miterlimit="10"/>
</svg>
